<mxfile host="app.diagrams.net" agent="Mozilla/5.0 (Macintosh; Intel Mac OS X 10_15_7) AppleWebKit/605.1.15 (KHTML, like Gecko) Version/18.2 Safari/605.1.15" version="27.1.6">
  <diagram name="第 1 页" id="Oc4nqK1zc5b1tX6pSCGD">
    <mxGraphModel dx="1360" dy="1005" grid="1" gridSize="10" guides="1" tooltips="1" connect="1" arrows="1" fold="1" page="1" pageScale="1" pageWidth="827" pageHeight="1169" math="0" shadow="0">
      <root>
        <mxCell id="0" />
        <mxCell id="1" parent="0" />
        <mxCell id="zAckn3ldLTWG6tECg7sT-13" value="" style="edgeStyle=orthogonalEdgeStyle;rounded=0;orthogonalLoop=1;jettySize=auto;html=1;" edge="1" parent="1" source="zAckn3ldLTWG6tECg7sT-1" target="zAckn3ldLTWG6tECg7sT-5">
          <mxGeometry relative="1" as="geometry" />
        </mxCell>
        <mxCell id="zAckn3ldLTWG6tECg7sT-1" value="接收客户端请求" style="rounded=1;whiteSpace=wrap;html=1;" vertex="1" parent="1">
          <mxGeometry x="354" y="40" width="120" height="60" as="geometry" />
        </mxCell>
        <mxCell id="zAckn3ldLTWG6tECg7sT-4" value="建立数据库连接" style="rounded=0;whiteSpace=wrap;html=1;" vertex="1" parent="1">
          <mxGeometry x="354" y="150" width="120" height="60" as="geometry" />
        </mxCell>
        <mxCell id="zAckn3ldLTWG6tECg7sT-14" value="" style="edgeStyle=orthogonalEdgeStyle;rounded=0;orthogonalLoop=1;jettySize=auto;html=1;" edge="1" parent="1" source="zAckn3ldLTWG6tECg7sT-5" target="zAckn3ldLTWG6tECg7sT-6">
          <mxGeometry relative="1" as="geometry" />
        </mxCell>
        <mxCell id="zAckn3ldLTWG6tECg7sT-15" value="" style="edgeStyle=orthogonalEdgeStyle;rounded=0;orthogonalLoop=1;jettySize=auto;html=1;" edge="1" parent="1" source="zAckn3ldLTWG6tECg7sT-5" target="zAckn3ldLTWG6tECg7sT-8">
          <mxGeometry relative="1" as="geometry" />
        </mxCell>
        <mxCell id="zAckn3ldLTWG6tECg7sT-5" value="连接成功?" style="rhombus;whiteSpace=wrap;html=1;" vertex="1" parent="1">
          <mxGeometry x="374" y="250" width="80" height="80" as="geometry" />
        </mxCell>
        <mxCell id="zAckn3ldLTWG6tECg7sT-16" value="" style="edgeStyle=orthogonalEdgeStyle;rounded=0;orthogonalLoop=1;jettySize=auto;html=1;" edge="1" parent="1" source="zAckn3ldLTWG6tECg7sT-6" target="zAckn3ldLTWG6tECg7sT-7">
          <mxGeometry relative="1" as="geometry" />
        </mxCell>
        <mxCell id="zAckn3ldLTWG6tECg7sT-6" value="执行SQL语句" style="rounded=0;whiteSpace=wrap;html=1;" vertex="1" parent="1">
          <mxGeometry x="140" y="260" width="120" height="60" as="geometry" />
        </mxCell>
        <mxCell id="zAckn3ldLTWG6tECg7sT-17" value="" style="edgeStyle=orthogonalEdgeStyle;rounded=0;orthogonalLoop=1;jettySize=auto;html=1;" edge="1" parent="1" source="zAckn3ldLTWG6tECg7sT-7" target="zAckn3ldLTWG6tECg7sT-9">
          <mxGeometry relative="1" as="geometry">
            <Array as="points">
              <mxPoint x="80" y="400" />
            </Array>
          </mxGeometry>
        </mxCell>
        <mxCell id="zAckn3ldLTWG6tECg7sT-18" value="" style="edgeStyle=orthogonalEdgeStyle;rounded=0;orthogonalLoop=1;jettySize=auto;html=1;" edge="1" parent="1" source="zAckn3ldLTWG6tECg7sT-7" target="zAckn3ldLTWG6tECg7sT-10">
          <mxGeometry relative="1" as="geometry">
            <Array as="points">
              <mxPoint x="320" y="400" />
            </Array>
          </mxGeometry>
        </mxCell>
        <mxCell id="zAckn3ldLTWG6tECg7sT-7" value="执行成功?" style="rhombus;whiteSpace=wrap;html=1;" vertex="1" parent="1">
          <mxGeometry x="160" y="380" width="80" height="80" as="geometry" />
        </mxCell>
        <mxCell id="zAckn3ldLTWG6tECg7sT-27" style="edgeStyle=orthogonalEdgeStyle;rounded=0;orthogonalLoop=1;jettySize=auto;html=1;exitX=0.5;exitY=1;exitDx=0;exitDy=0;entryX=1;entryY=0.5;entryDx=0;entryDy=0;" edge="1" parent="1" source="zAckn3ldLTWG6tECg7sT-8" target="zAckn3ldLTWG6tECg7sT-11">
          <mxGeometry relative="1" as="geometry" />
        </mxCell>
        <mxCell id="zAckn3ldLTWG6tECg7sT-8" value="返回错误信息" style="rounded=0;whiteSpace=wrap;html=1;" vertex="1" parent="1">
          <mxGeometry x="560" y="260" width="120" height="60" as="geometry" />
        </mxCell>
        <mxCell id="zAckn3ldLTWG6tECg7sT-25" style="edgeStyle=orthogonalEdgeStyle;rounded=0;orthogonalLoop=1;jettySize=auto;html=1;exitX=0.5;exitY=1;exitDx=0;exitDy=0;entryX=0;entryY=0.5;entryDx=0;entryDy=0;" edge="1" parent="1" source="zAckn3ldLTWG6tECg7sT-9" target="zAckn3ldLTWG6tECg7sT-11">
          <mxGeometry relative="1" as="geometry">
            <mxPoint x="280" y="630" as="targetPoint" />
          </mxGeometry>
        </mxCell>
        <mxCell id="zAckn3ldLTWG6tECg7sT-9" value="返回成功信息" style="rounded=0;whiteSpace=wrap;html=1;" vertex="1" parent="1">
          <mxGeometry x="20" y="490" width="120" height="60" as="geometry" />
        </mxCell>
        <mxCell id="zAckn3ldLTWG6tECg7sT-26" style="edgeStyle=orthogonalEdgeStyle;rounded=0;orthogonalLoop=1;jettySize=auto;html=1;exitX=0.5;exitY=1;exitDx=0;exitDy=0;entryX=0;entryY=0.5;entryDx=0;entryDy=0;" edge="1" parent="1" source="zAckn3ldLTWG6tECg7sT-10" target="zAckn3ldLTWG6tECg7sT-11">
          <mxGeometry relative="1" as="geometry">
            <mxPoint x="320" y="640" as="targetPoint" />
            <Array as="points">
              <mxPoint x="320" y="640" />
            </Array>
          </mxGeometry>
        </mxCell>
        <mxCell id="zAckn3ldLTWG6tECg7sT-10" value="返回错误信息" style="rounded=0;whiteSpace=wrap;html=1;" vertex="1" parent="1">
          <mxGeometry x="260" y="490" width="120" height="60" as="geometry" />
        </mxCell>
        <mxCell id="zAckn3ldLTWG6tECg7sT-28" style="edgeStyle=orthogonalEdgeStyle;rounded=0;orthogonalLoop=1;jettySize=auto;html=1;exitX=0.5;exitY=1;exitDx=0;exitDy=0;entryX=0.5;entryY=0;entryDx=0;entryDy=0;" edge="1" parent="1" source="zAckn3ldLTWG6tECg7sT-11" target="zAckn3ldLTWG6tECg7sT-12">
          <mxGeometry relative="1" as="geometry" />
        </mxCell>
        <mxCell id="zAckn3ldLTWG6tECg7sT-11" value="显示数据结果" style="rounded=0;whiteSpace=wrap;html=1;" vertex="1" parent="1">
          <mxGeometry x="354" y="610" width="120" height="60" as="geometry" />
        </mxCell>
        <mxCell id="zAckn3ldLTWG6tECg7sT-12" value="返回请求" style="rounded=1;whiteSpace=wrap;html=1;" vertex="1" parent="1">
          <mxGeometry x="354" y="730" width="120" height="60" as="geometry" />
        </mxCell>
      </root>
    </mxGraphModel>
  </diagram>
</mxfile>
